<svg xmlns="http://www.w3.org/2000/svg" viewBox="0 0 760 720" font-family="'Fira Code', 'Cascadia Code', 'JetBrains Mono', monospace" font-size="13">
  <defs>
    <style>
      /* Tokyo Night palette */
      .bg { fill: rgba(26, 27, 38, 0.55); }
      .bg-solid { fill: #1a1b26; }
      .border { fill: none; stroke: #3b4261; stroke-width: 1.5; }
      .title-bg { fill: rgba(31, 35, 53, 0.6); }
      .title-text { fill: #565f89; font-size: 12px; font-family: sans-serif; font-weight: 600; }
      .surface { fill: rgba(36, 40, 59, 0.65); }
      .blue { fill: #7aa2f7; }
      .green { fill: #9ece6a; }
      .peach { fill: #ff9e64; }
      .pink { fill: #bb9af7; }
      .cyan { fill: #7dcfff; }
      .red { fill: #f7768e; }
      .yellow { fill: #e0af68; }
      .dim { fill: #565f89; }
      .bar-bg { fill: #24283b; }
      .bar-pct { fill: #565f89; }
      .p-user { fill: #7aa2f7; }
      .p-at { fill: #565f89; }
      .p-host { fill: #7aa2f7; }
      .p-dollar { fill: #ff9e64; }
      .p-cmd { fill: #c0caf5; }
      .p-cursor { fill: #c0caf5; animation: blink 1.2s step-end infinite; }
      .label { fill: #9ece6a; }
      .value { fill: #c0caf5; }
      .ach-ok { fill: #9ece6a; }
      .ach-name { fill: #c0caf5; }
      .footer-text { fill: #565f89; font-size: 11px; }
      .window-btn { fill: #3b4261; }

      .moon { fill: #c0caf5; }
      .moon-shadow { fill: #1a1b26; }
      @keyframes blink { 50% { opacity: 0; } }

    </style>
  </defs>

  <!-- Night sky background -->
  <rect class="bg-solid" x="0" y="0" width="760" height="720"/>

  <!-- Subtle sky gradient -->
  <rect x="0" y="0" width="760" height="720" fill="url(#skyGrad)" opacity="0.15"/>
  <defs>
    <linearGradient id="skyGrad" x1="0" y1="0" x2="0" y2="1">
      <stop offset="0%" stop-color="#7dcfff" stop-opacity="0.1"/>
      <stop offset="40%" stop-color="#7dcfff" stop-opacity="0.03"/>
      <stop offset="100%" stop-color="#1a1b26" stop-opacity="0"/>
    </linearGradient>
  </defs>

  <!-- Procedural star field (noise-based) -->
  <filter id="stars-bright" x="0" y="0" width="760" height="720" filterUnits="userSpaceOnUse">
    <feTurbulence type="fractalNoise" baseFrequency="0.5" numOctaves="1" seed="13" result="noise"/>
    <feColorMatrix in="noise" type="luminanceToAlpha" result="alpha"/>
    <feComponentTransfer in="alpha" result="mask">
      <feFuncA type="discrete" tableValues="0 0 0 0 0 0 0 0 0 0 0 0 0 0 0 0 0 1 1 1"/>
    </feComponentTransfer>
    <feComposite in="SourceGraphic" in2="mask" operator="in"/>
  </filter>
  <rect width="760" height="720" fill="#c0caf5" filter="url(#stars-bright)" opacity="0.6"/>
  <filter id="stars-dim" x="0" y="0" width="760" height="720" filterUnits="userSpaceOnUse">
    <feTurbulence type="fractalNoise" baseFrequency="0.9" numOctaves="1" seed="7" result="noise"/>
    <feColorMatrix in="noise" type="luminanceToAlpha" result="alpha"/>
    <feComponentTransfer in="alpha" result="mask">
      <feFuncA type="discrete" tableValues="0 0 0 0 0 0 0 0 1 1 1 1 1 1 1 1 1 1 1 1"/>
    </feComponentTransfer>
    <feComposite in="SourceGraphic" in2="mask" operator="in"/>
  </filter>
  <rect width="760" height="720" fill="#565f89" filter="url(#stars-dim)" opacity="0.4"/>

  <!-- Full Moon -->
  <g>
    <animateTransform attributeName="transform" type="translate" values="665 42;665 47;665 42" dur="6s" repeatCount="indefinite"/>
    <circle r="36" fill="#c0caf5" opacity="0.15">
      <animate attributeName="opacity" values="0.1;0.25;0.1" dur="5s" repeatCount="indefinite"/>
    </circle>
    <circle r="30" fill="#c0caf5"/>
    <!-- Craters -->
    <circle r="4" cx="-10" cy="-8" fill="#a9b1d6" opacity="0.3"/>
    <circle r="6" cx="7" cy="-5" fill="#a9b1d6" opacity="0.2"/>
    <circle r="3" cx="-5" cy="10" fill="#a9b1d6" opacity="0.25"/>
    <circle r="3.5" cx="14" cy="8" fill="#a9b1d6" opacity="0.18"/>
    <circle r="2" cx="-14" cy="4" fill="#a9b1d6" opacity="0.22"/>
    <circle r="3" cx="1" cy="-16" fill="#a9b1d6" opacity="0.18"/>
    <circle r="2" cx="-7" cy="-16" fill="#a9b1d6" opacity="0.12"/>
    <circle r="2.5" cx="16" cy="-2" fill="#a9b1d6" opacity="0.12"/>
  </g>

  <defs>
    <linearGradient id="tail1" x1="0" y1="0" x2="-50" y2="50" gradientUnits="userSpaceOnUse">
      <stop offset="0%" stop-color="#c0caf5" stop-opacity="0.9"/>
      <stop offset="100%" stop-color="#c0caf5" stop-opacity="0"/>
    </linearGradient>
    <linearGradient id="tail2" x1="0" y1="0" x2="-30" y2="35" gradientUnits="userSpaceOnUse">
      <stop offset="0%" stop-color="#c0caf5" stop-opacity="0.7"/>
      <stop offset="100%" stop-color="#c0caf5" stop-opacity="0"/>
    </linearGradient>
    <linearGradient id="tail3" x1="0" y1="0" x2="-25" y2="25" gradientUnits="userSpaceOnUse">
      <stop offset="0%" stop-color="#c0caf5" stop-opacity="0.5"/>
      <stop offset="100%" stop-color="#c0caf5" stop-opacity="0"/>
    </linearGradient>
  </defs>

  <!-- Shooting star 1 -->
  <g>
    <animateTransform attributeName="transform" type="translate" from="580 0" to="480 100" dur="6s" repeatCount="indefinite" begin="2s"/>
    <animate attributeName="opacity" values="0;0;1;1;0;0" keyTimes="0;0.03;0.08;0.25;0.3;1" dur="6s" repeatCount="indefinite" begin="2s"/>
    <line x1="0" y1="0" x2="-50" y2="50" stroke="url(#tail1)" stroke-width="2" stroke-linecap="round"/>
    <circle cx="0" cy="0" r="2" fill="#ffffff"/>
  </g>

  <!-- Shooting star 2 -->
  <g>
    <animateTransform attributeName="transform" type="translate" from="320 10" to="250 80" dur="8s" repeatCount="indefinite" begin="5s"/>
    <animate attributeName="opacity" values="0;0;0.7;0.7;0;0" keyTimes="0;0.03;0.08;0.2;0.25;1" dur="8s" repeatCount="indefinite" begin="5s"/>
    <line x1="0" y1="0" x2="-30" y2="35" stroke="url(#tail2)" stroke-width="1.5" stroke-linecap="round"/>
    <circle cx="0" cy="0" r="1.5" fill="#ffffff"/>
  </g>

  <!-- Shooting star 3 -->
  <g>
    <animateTransform attributeName="transform" type="translate" from="450 0" to="400 50" dur="10s" repeatCount="indefinite" begin="8s"/>
    <animate attributeName="opacity" values="0;0;0.5;0.5;0;0" keyTimes="0;0.03;0.08;0.18;0.22;1" dur="10s" repeatCount="indefinite" begin="8s"/>
    <line x1="0" y1="0" x2="-25" y2="25" stroke="url(#tail3)" stroke-width="1" stroke-linecap="round"/>
    <circle cx="0" cy="0" r="1" fill="#ffffff"/>
  </g>

  <!-- Shuttle 1 -->
  <g opacity="0">
    <animateTransform attributeName="transform" type="translate" from="120 110" to="370 -150" dur="15s" repeatCount="indefinite" begin="4s"/>
    <animate attributeName="opacity" values="0;0;0.8;0.8;0;0" keyTimes="0;0.05;0.1;0.85;0.92;1" dur="15s" repeatCount="indefinite" begin="4s"/>
    <g transform="rotate(45)">
      <polygon points="0,-14 -4,-6 4,-6" fill="#c0caf5"/>
      <rect x="-5" y="-6" width="10" height="10" rx="1.5" fill="#c0caf5"/>
      <polygon points="-5,4 -8,7 -5,7" fill="#c0caf5" opacity="0.7"/>
      <polygon points="5,4 8,7 5,7" fill="#c0caf5" opacity="0.7"/>
      <rect x="-2.5" y="-4" width="5" height="3" rx="1" fill="#7aa2f7" opacity="0.6"/>
      <ellipse cx="0" cy="5" rx="2.5" ry="4" fill="#ff9e64">
        <animate attributeName="opacity" values="0.4;0.9;0.4" dur="0.3s" repeatCount="indefinite"/>
      </ellipse>
    </g>
  </g>

  <!-- Shuttle 2 -->
  <g opacity="0">
    <animateTransform attributeName="transform" type="translate" from="400 80" to="570 -120" dur="18s" repeatCount="indefinite" begin="10s"/>
    <animate attributeName="opacity" values="0;0;0.6;0.6;0;0" keyTimes="0;0.05;0.1;0.85;0.92;1" dur="18s" repeatCount="indefinite" begin="10s"/>
    <g transform="rotate(45)">
      <polygon points="0,-10 -3,-4 3,-4" fill="#c0caf5"/>
      <rect x="-3.5" y="-4" width="7" height="7" rx="1" fill="#c0caf5"/>
      <polygon points="-3.5,3 -6,5 -3.5,5" fill="#c0caf5" opacity="0.7"/>
      <polygon points="3.5,3 6,5 3.5,5" fill="#c0caf5" opacity="0.7"/>
      <rect x="-1.5" y="-3" width="3" height="2" rx="0.8" fill="#7dcfff" opacity="0.6"/>
      <ellipse cx="0" cy="4" rx="1.5" ry="3" fill="#ff9e64">
        <animate attributeName="opacity" values="0.4;0.9;0.4" dur="0.25s" repeatCount="indefinite"/>
      </ellipse>
    </g>
  </g>

  <!-- Drop shadow for terminal -->
  <rect x="29" y="74" width="700" height="590" rx="10" fill="#0f0f18" opacity="0.5"/>

  <!-- Terminal window -->
  <g transform="translate(25, 70)">
    <rect class="bg" x="0" y="0" width="700" height="590" rx="8"/>
    <rect class="border" x="0" y="0" width="700" height="590" rx="8"/>

    <!-- Title bar -->
    <rect class="title-bg" x="1.5" y="1.5" width="697" height="32" rx="6"/>
    <rect class="title-bg" x="1.5" y="20" width="697" height="13.5"/>

    <!-- Window buttons -->
    <circle cx="22" cy="17" r="4.5" class="window-btn"/>
    <circle cx="38" cy="17" r="4.5" class="window-btn" opacity="0.7"/>
    <circle cx="54" cy="17" r="4.5" class="window-btn" opacity="0.4"/>

    <!-- Title -->
    <text x="350" y="21" text-anchor="middle" class="title-text">🌙 zsh — citizenjc@github: ~</text>

    <!-- Terminal content -->
    <g transform="translate(0, 48)">

    <!-- Prompt: neofetch -->
    <text x="24" y="28">
      <tspan class="p-user">citizenjc</tspan><tspan class="p-at">@</tspan><tspan class="p-host">github</tspan><tspan class="p-dollar">:~$</tspan><tspan class="p-cmd" dx="6">neofetch</tspan>
    </text>

    <text class="label" x="40" y="52">OS</text>
    <text class="value" x="103" y="52">GitHub Profile</text>
    <text class="label" x="40" y="70">Shell</text>
    <text class="value" x="103" y="70">zsh 5.9</text>
    <text class="label" x="40" y="88">Uptime</text>
    <text class="value" x="103" y="88">since the dial-up days</text>
    <text class="label" x="40" y="106">TZ</text>
    <text class="value" x="103" y="106">UTC (give or take)</text>

    <text class="label" x="288" y="52">Repos</text>
    <text class="value" x="368" y="52">35</text>
    <text class="label" x="288" y="70">Pulls</text>
    <text class="value" x="368" y="70">331</text>
    <text class="label" x="288" y="88">Issues</text>
    <text class="value" x="368" y="88">2</text>
    <text class="label" x="288" y="106">Contribs</text>
    <text class="value" x="368" y="106">2288 total</text>

    <!-- Separator -->
    <line class="border" x1="24" y1="128" x2="676" y2="128"/>

    <!-- Prompt: langs -->
    <text x="24" y="153">
      <tspan class="p-user">citizenjc</tspan><tspan class="p-at">@</tspan><tspan class="p-host">github</tspan><tspan class="p-dollar">:~$</tspan><tspan class="p-cmd" dx="6">cat langs.txt</tspan>
    </text>

    <text class="value" x="40" y="179">TypeScript</text>
    <rect class="bar-bg" x="148" y="171" width="200" height="8" rx="4"/>
    <rect class="blue" x="148" y="171" width="144" height="8" rx="4"/>
    <text class="bar-pct" x="358" y="179">28.9%</text>

    <text class="value" x="40" y="197">JavaScript</text>
    <rect class="bar-bg" x="148" y="189" width="200" height="8" rx="4"/>
    <rect class="yellow" x="148" y="189" width="119" height="8" rx="4"/>
    <text class="bar-pct" x="358" y="197">23.9%</text>

    <text class="value" x="40" y="215">Python</text>
    <rect class="bar-bg" x="148" y="207" width="200" height="8" rx="4"/>
    <rect class="cyan" x="148" y="207" width="44" height="8" rx="4"/>
    <text class="bar-pct" x="358" y="215">8.8%</text>

    <text class="value" x="40" y="233">CSS</text>
    <rect class="bar-bg" x="148" y="225" width="200" height="8" rx="4"/>
    <rect class="pink" x="148" y="225" width="41" height="8" rx="4"/>
    <text class="bar-pct" x="358" y="233">8.2%</text>

    <text class="value" x="40" y="251">PHP</text>
    <rect class="bar-bg" x="148" y="243" width="200" height="8" rx="4"/>
    <rect class="peach" x="148" y="243" width="36" height="8" rx="4"/>
    <text class="bar-pct" x="358" y="251">7.3%</text>

    <text class="value" x="40" y="269">GDScript</text>
    <rect class="bar-bg" x="148" y="261" width="200" height="8" rx="4"/>
    <rect class="blue" x="148" y="261" width="36" height="8" rx="4" opacity="0.6"/>
    <text class="bar-pct" x="358" y="269">7.2%</text>

    <text class="value" x="40" y="287">HTML</text>
    <rect class="bar-bg" x="148" y="279" width="200" height="8" rx="4"/>
    <rect class="red" x="148" y="279" width="36" height="8" rx="4"/>
    <text class="bar-pct" x="358" y="287">7.3%</text>

    <text class="value" x="40" y="305">Shell</text>
    <rect class="bar-bg" x="148" y="297" width="200" height="8" rx="4"/>
    <rect class="green" x="148" y="297" width="11" height="8" rx="4"/>
    <text class="bar-pct" x="358" y="305">2.2%</text>

    <text class="value" x="40" y="323">Java</text>
    <rect class="bar-bg" x="148" y="315" width="200" height="8" rx="4"/>
    <rect class="peach" x="148" y="315" width="7" height="8" rx="4" opacity="0.6"/>
    <text class="bar-pct" x="358" y="323">1.4%</text>

    <text class="value" x="40" y="341">Astro</text>
    <rect class="bar-bg" x="148" y="333" width="200" height="8" rx="4"/>
    <rect class="peach" x="148" y="333" width="5" height="8" rx="4" opacity="0.4"/>
    <text class="bar-pct" x="358" y="341">1.0%</text>

    <!-- Separator -->
    <line class="border" x1="24" y1="358" x2="676" y2="358"/>

    <!-- Prompt: achievements -->
    <text x="24" y="383">
      <tspan class="p-user">citizenjc</tspan><tspan class="p-at">@</tspan><tspan class="p-host">github</tspan><tspan class="p-dollar">:~$</tspan><tspan class="p-cmd" dx="6">cat achievements.log</tspan>
    </text>

    <text class="ach-ok" x="40" y="407">[ok]</text>
    <text class="ach-name" x="78" y="407">Pair Extraordinaire  x4</text>
    <text class="ach-ok" x="40" y="425">[ok]</text>
    <text class="ach-name" x="78" y="425">Pull Shark           x3</text>
    <text class="ach-ok" x="40" y="443">[ok]</text>
    <text class="ach-name" x="78" y="443">YOLO</text>
    <text class="ach-ok" x="40" y="461">[ok]</text>
    <text class="ach-name" x="78" y="461">Quickdraw</text>

    <!-- Final prompt + cursor -->
    <text x="24" y="489">
      <tspan class="p-user">citizenjc</tspan><tspan class="p-at">@</tspan><tspan class="p-host">github</tspan><tspan class="p-dollar">:~$</tspan><tspan class="p-cursor" dx="2">&#9608;</tspan>
    </text>

    <!-- Status line -->
    <rect class="surface" x="24" y="508" width="652" height="22" rx="4"/>
    <text class="footer-text" x="34" y="523">citizenjc@github</text>
    <text class="footer-text" x="350" y="523" text-anchor="middle">profile data from github api</text>
    <text class="footer-text" x="666" y="523" text-anchor="end">2026-07-21</text>

    </g>
  </g>
</svg>
